<svg width="3869" height="1665" xmlns="http://www.w3.org/2000/svg" xmlns:xlink="http://www.w3.org/1999/xlink" xml:space="preserve" overflow="hidden"><g transform="translate(-128 -607)"><rect x="1580.5" y="610.5" width="880" height="1636" stroke="#622C0F" stroke-width="6.875" stroke-miterlimit="8" fill="#E97132"/><text fill="#FFFFFF" font-family="Aptos,Aptos_MSFontService,sans-serif" font-weight="400" font-size="55" transform="matrix(1 0 0 1 1791.57 678)">Transaction Bundle</text><rect x="1614.5" y="721.5" width="500" height="195" stroke="#042433" stroke-width="6.875" stroke-miterlimit="8" fill="#156082"/><text fill="#FFFFFF" font-family="Aptos,Aptos_MSFontService,sans-serif" font-weight="400" font-size="55" transform="matrix(1 0 0 1 1811.65 837)">Task</text><rect x="1614.5" y="940.5" width="500" height="195" stroke="#042433" stroke-width="6.875" stroke-miterlimit="8" fill="#156082"/><text fill="#FFFFFF" font-family="Aptos,Aptos_MSFontService,sans-serif" font-weight="400" font-size="55" transform="matrix(1 0 0 1 1738.26 1022)">Document </text><text fill="#FFFFFF" font-family="Aptos,Aptos_MSFontService,sans-serif" font-weight="400" font-size="55" transform="matrix(1 0 0 1 1743 1088)">Reference</text><rect x="1920.5" y="1159.5" width="499" height="195" stroke="#042433" stroke-width="6.875" stroke-miterlimit="8" fill="#156082"/><text fill="#FFFFFF" font-family="Aptos,Aptos_MSFontService,sans-serif" font-weight="400" font-size="55" transform="matrix(1 0 0 1 1953.01 1274)">Application Forms</text><rect x="1920.5" y="1372.5" width="499" height="195" stroke="#042433" stroke-width="6.875" stroke-miterlimit="8" fill="#156082"/><text fill="#FFFFFF" font-family="Aptos,Aptos_MSFontService,sans-serif" font-weight="400" font-size="55" transform="matrix(1 0 0 1 2131.88 1488)">ePI</text><rect x="1920.5" y="1590.5" width="499" height="195" stroke="#042433" stroke-width="6.875" stroke-miterlimit="8" fill="#156082"/><text fill="#FFFFFF" font-family="Aptos,Aptos_MSFontService,sans-serif" font-weight="400" font-size="55" transform="matrix(1 0 0 1 2126.43 1705)">PQI</text><rect x="1614.5" y="2023.5" width="500" height="195" stroke="#042433" stroke-width="6.875" stroke-miterlimit="8" fill="#156082"/><text fill="#FFFFFF" font-family="Aptos,Aptos_MSFontService,sans-serif" font-weight="400" font-size="55" transform="matrix(1 0 0 1 1724.53 2139)">Provenance</text><path d="M2486.5 727.5C2504.73 727.5 2519.5 729.962 2519.5 733L2519.5 819C2519.5 822.038 2534.27 824.5 2552.5 824.5 2534.27 824.5 2519.5 826.962 2519.5 830L2519.5 916C2519.5 919.038 2504.73 921.5 2486.5 921.5" stroke="#156082" stroke-width="6.875" stroke-miterlimit="8" fill="none" fill-rule="evenodd"/><text font-family="Aptos,Aptos_MSFontService,sans-serif" font-weight="400" font-size="73" transform="matrix(1 0 0 1 2653.4 778)">Describes what needs to be done, who is </text><text font-family="Aptos,Aptos_MSFontService,sans-serif" font-weight="400" font-size="73" transform="matrix(1 0 0 1 2653.4 866)">responsible, and its status.</text><path d="M2486.5 940.5C2504.73 940.5 2519.5 942.962 2519.5 945.999L2519.5 1481C2519.5 1484.04 2534.28 1486.5 2552.5 1486.5 2534.28 1486.5 2519.5 1488.96 2519.5 1492L2519.5 2027C2519.5 2030.04 2504.73 2032.5 2486.5 2032.5" stroke="#156082" stroke-width="6.875" stroke-miterlimit="8" fill="none" fill-rule="evenodd"/><text font-family="Aptos,Aptos_MSFontService,sans-serif" font-weight="400" font-size="73" transform="matrix(1 0 0 1 2653.4 1409)">Index of supporting documents or data </text><text font-family="Aptos,Aptos_MSFontService,sans-serif" font-weight="400" font-size="73" transform="matrix(1 0 0 1 2653.4 1497)">sets included in the transaction. All </text><text font-family="Aptos,Aptos_MSFontService,sans-serif" font-weight="400" font-size="73" transform="matrix(1 0 0 1 2653.4 1585)">encoded as base64.</text><text font-family="Aptos,Aptos_MSFontService,sans-serif" font-weight="400" font-size="73" transform="matrix(1 0 0 1 172.117 1322)">Describes the “submission”. I.e., </text><text font-family="Aptos,Aptos_MSFontService,sans-serif" font-weight="400" font-size="73" transform="matrix(1 0 0 1 172.117 1410)">Collection of FHIR resources processed </text><text font-family="Aptos,Aptos_MSFontService,sans-serif" font-weight="400" font-size="73" transform="matrix(1 0 0 1 172.117 1498)">together as a single unit. </text><path d="M0 0C14.0837 -8.13612e-16 25.5008 1.90245 25.5008 4.24923L25.5008 813.751C25.5008 816.098 36.9179 818 51.0017 818 36.9179 818 25.5008 819.902 25.5008 822.249L25.5008 1631.75C25.5008 1634.1 14.0837 1636-3.25445e-15 1636" stroke="#156082" stroke-width="6.875" stroke-miterlimit="8" fill="none" fill-rule="evenodd" transform="matrix(-1 0 0 1 1564.5 610.5)"/><rect x="1920.5" y="1805.5" width="499" height="195" stroke="#042433" stroke-width="6.875" stroke-miterlimit="8" fill="#156082"/><text fill="#FFFFFF" font-family="Aptos,Aptos_MSFontService,sans-serif" font-weight="400" font-size="55" transform="matrix(1 0 0 1 1969.2 1854)">List of Questions </text><text fill="#FFFFFF" font-family="Aptos,Aptos_MSFontService,sans-serif" font-weight="400" font-size="55" transform="matrix(1 0 0 1 1991.09 1920)">or Response to </text><text fill="#FFFFFF" font-family="Aptos,Aptos_MSFontService,sans-serif" font-weight="400" font-size="55" transform="matrix(1 0 0 1 2046.68 1986)">Questions</text><path d="M2486.5 2051.5C2504.73 2051.5 2519.5 2053.96 2519.5 2057L2519.5 2143.5C2519.5 2146.54 2534.27 2149 2552.5 2149 2534.27 2149 2519.5 2151.46 2519.5 2154.5L2519.5 2241C2519.5 2244.04 2504.73 2246.5 2486.5 2246.5" stroke="#156082" stroke-width="6.875" stroke-miterlimit="8" fill="none" fill-rule="evenodd"/><text font-family="Aptos,Aptos_MSFontService,sans-serif" font-weight="400" font-size="73" transform="matrix(1 0 0 1 2635.77 2119)">Describes who is sending the </text><text font-family="Aptos,Aptos_MSFontService,sans-serif" font-weight="400" font-size="73" transform="matrix(1 0 0 1 2635.77 2207)">transaction with authentication.</text></g></svg>